<?xml version="1.0" encoding="UTF-8"?>
<svg id="katman_1" data-name="katman 1" xmlns="http://www.w3.org/2000/svg" version="1.1" viewBox="0 0 841.89 595.28">
  <defs>
    <style>
      .cls-1 {
        fill: #4b39ef;
      }

      .cls-1, .cls-2 {
        fill-rule: evenodd;
        stroke-width: 0px;
      }

      .cls-2 {
        fill: #1d1d1b;
      }
    </style>
  </defs>
  <g id="logo">
    <g id="UI-Element-_logoMark" data-name="UI-Element-/logoMark">
      <path id="logo_fill" data-name="logo fill" class="cls-1" d="M178.88,232.96c3.88,0,7.47,2.1,9.29,5.51,1.74,3.27,1.67,7.12-.19,10.32l-.06.11-16.32,27.3c-1.85,3.09-5.18,5.01-8.74,5.05h-.12s-18.64,0-18.64,0l7.75,17.73.03.05.05.08c1.82,3.3,1.78,7.22-.11,10.46l-.06.11-16.32,27.3c-1.85,3.09-5.18,5.01-8.74,5.05h-.12s-22.87,0-22.87,0l-16.44,17.34-.03.03c-1.55,1.57-3.64,2.45-5.82,2.45-.54,0-1.09-.06-1.63-.17-2.66-.54-4.87-2.37-5.93-4.88l-.03-.07-8.65-19.86-.05-.08-.05-.08s-.02-.03-.02-.04c-1.82-3.3-1.78-7.22.11-10.46l.06-.11,15.83-26.48-11.66-26.7.21-.11v-.02c-.5-2.46-.1-5.02,1.17-7.26l.07-.12.06-.11,16.32-27.3c1.85-3.09,5.18-5.01,8.74-5.06h82.92ZM93.19,341.83h-17.34s5.09,11.78,5.09,11.78v.03c.1.21.23.33.44.37.18.04.33,0,.47-.13l.02-.02,11.32-12.03ZM142.75,301.33h-52.41c-.06,0-.12,0-.17,0h-.02s14.37,32.87,14.37,32.87h22.05c.91,0,1.78-.49,2.28-1.26l.04-.06,16.34-27.32c.49-.81.54-1.76.16-2.61-.45-.98-1.48-1.62-2.63-1.62ZM84.89,308.08l-12.97,21.86c-.52.87-.55,1.89-.08,2.79l.05.09.03.04.05.09.1.15.12.15.11.13.02.02.07.08.07.06c.41.37.91.6,1.47.65h.12s.07.01.07.01h.09s22.01,0,22.01,0l-11.33-26.13ZM81.48,281.3l5.7,13.07.11-.04c.98-.33,2.01-.51,3.05-.52h.16s50.81,0,50.81,0l-5.45-12.5h-54.37ZM178.73,240.58h-52.6l14.38,32.88h22.04c.91,0,1.78-.49,2.28-1.27l.04-.06,16.34-27.32c.49-.81.54-1.76.16-2.61-.44-.96-1.44-1.6-2.56-1.63h-.07ZM118.08,240.58h-21.92c-.9,0-1.77.48-2.27,1.26l-.04.06-16.3,27.32c-.49.82-.54,1.76-.15,2.61.43.96,1.43,1.6,2.54,1.62h.07s52.4,0,52.4,0l-14.34-32.88Z"/>
    </g>
    <path id="FlutterFlow" class="cls-2" d="M265.74,273.9l.06-16.74h-45.98v76.09h17.31v-27.93h22.66l.06-16.74h-22.72v-14.67h28.61ZM275.54,333.25h16.23v-79.35h-16.23v79.35ZM338.62,278.9v29.67c0,7.72-4.11,11.2-10.06,11.2-5.19,0-9.41-3.15-9.41-9.89v-30.98h-16.23v33.37c0,14.67,9.3,22.5,20.23,22.5,7.14,0,12.55-2.61,15.47-6.63v5.11h16.23v-54.35h-16.23ZM398.45,294.56v-15.65h-11.14v-15.22l-16.23,4.89v10.33h-8.66v15.65h8.66v19.24c0,15.22,6.17,21.63,27.37,19.46v-14.78c-7.14.43-11.14,0-11.14-4.67v-19.24h11.14ZM440.42,294.56v-15.65h-11.14v-15.22l-16.23,4.89v10.33h-8.66v15.65h8.66v19.24c0,15.22,6.17,21.63,27.37,19.46v-14.78c-7.14.43-11.14,0-11.14-4.67v-19.24h11.14ZM465.2,312.6h38.41c.43-2.07.65-4.24.65-6.52,0-16.41-11.68-28.7-27.48-28.7-17.09,0-28.78,12.5-28.78,28.7s11.47,28.7,29.97,28.7c10.28,0,18.28-3.8,23.59-11.2l-12.98-7.5c-2.16,2.39-5.95,4.13-10.39,4.13-5.95,0-10.93-1.96-12.98-7.61ZM464.88,300.42c1.51-5.54,5.63-8.59,11.79-8.59,4.87,0,9.74,2.28,11.47,8.59h-23.26ZM529.68,288.58v-9.67h-16.23v54.35h16.23v-24.56c0-10.76,9.52-13.48,16.23-12.39v-18.48c-6.82,0-14.06,3.48-16.23,10.76ZM599.94,273.9l.06-16.74h-45.98v76.09h17.31v-27.93h22.66l.06-16.74h-22.72v-14.67h28.61ZM609.74,333.25h16.23v-79.35h-16.23v79.35ZM663.84,334.77c15.9,0,28.67-12.5,28.67-28.7s-12.77-28.7-28.67-28.7-28.67,12.5-28.67,28.7,12.77,28.7,28.67,28.7ZM663.84,318.9c-7.03,0-12.44-5.11-12.44-12.83s5.41-12.83,12.44-12.83,12.44,5.11,12.44,12.83-5.41,12.83-12.44,12.83ZM761.21,278.9l-7.79,29.13-8.44-29.13h-15.15l-8.44,29.13-7.79-29.13h-17.31l17.31,54.35h15.15l8.66-29.02,8.66,29.02h15.15l17.31-54.35h-17.31Z"/>
  </g>
</svg>